# xmcd
#
# Track frame offsets:
#   150
#   12906
#   30486
#   48521
#   67769
#   83873
#   102948
#
# Disc length: 1588 seconds
#
# Revision: 0
# Processed by: cddbd v1.5.2PL0 Copyright (c) Steve Scherf et al.
# Submitted via: GXTranscoder 2.0.1939
#
DISCID=4a063207
DTITLE=KLaus Hoffmann - Sänger
DYEAR=1900
DGENRE=UnClassifiable
TTITLE0=Wegen Dir
TTITLE1=Wir leben noch
TTITLE2=Zwei wie wir
TTITLE3=Komm wir reiten den Wind
TTITLE4=Ich hab`s gewusst
TTITLE5=Hey Junge
TTITLE6=Als wenn es gar nichts wär
EXTD=
EXTT0=
EXTT1=
EXTT2=
EXTT3=
EXTT4=
EXTT5=
EXTT6=
PLAYORDER=
